{
  "accessors": [
    {
      "bufferView": 2,
      "componentType": 5126,
      "count": 54892,
      "max": [
        15.416208267211914,
        4.167840957641602,
        20.45454216003418
      ],
      "min": [
        -17.716520309448242,
        -1.8074909448623657,
        -10.448433876037598
      ],
      "type": "VEC3"
    },
    {
      "bufferView": 2,
      "byteOffset": 658704,
      "componentType": 5126,
      "count": 54892,
      "max": [
        0.9999798536300659,
        1.0,
        0.9999944567680359
      ],
      "min": [
        -0.9999962449073792,
        -0.999980092048645,
        -0.999991238117218
      ],
      "type": "VEC3"
    },
    {
      "bufferView": 3,
      "componentType": 5126,
      "count": 54892,
      "max": [
        0.9999937415122986,
        0.9999969005584717,
        0.9999241232872009,
        1.0
      ],
      "min": [
        -0.999994158744812,
        -0.9999972581863403,
        -0.9999828934669495,
        -1.0
      ],
      "type": "VEC4"
    },
    {
      "bufferView": 1,
      "componentType": 5126,
      "count": 54892,
      "max": [
        0.9943580031394958,
        0.9990699887275696
      ],
      "min": [
        0.0009299999801442027,
        0.0009299999801442027
      ],
      "type": "VEC2"
    },
    {
      "bufferView": 0,
      "componentType": 5125,
      "count": 298782,
      "type": "SCALAR"
    }
  ],
  "asset": {
    "extras": {
      "author": "Vila 3D - Património Cultural (https://sketchfab.com/VFC3D)",
      "license": "CC-BY-NC-SA-4.0 (http://creativecommons.org/licenses/by-nc-sa/4.0/)",
      "source": "https://sketchfab.com/3d-models/forte-do-tagarete-dareia-do-baixio-c0dc7962ea1444fe87e8450d22d62594",
      "title": "Forte do Tagarete (d'Areia | do Baixio)"
    },
    "generator": "Sketchfab-16.15.0",
    "version": "2.0"
  },
  "bufferViews": [
    {
      "buffer": 0,
      "byteLength": 1195128,
      "name": "floatBufferViews",
      "target": 34963
    },
    {
      "buffer": 0,
      "byteLength": 439136,
      "byteOffset": 1195128,
      "byteStride": 8,
      "name": "floatBufferViews",
      "target": 34962
    },
    {
      "buffer": 0,
      "byteLength": 1317408,
      "byteOffset": 1634264,
      "byteStride": 12,
      "name": "floatBufferViews",
      "target": 34962
    },
    {
      "buffer": 0,
      "byteLength": 878272,
      "byteOffset": 2951672,
      "byteStride": 16,
      "name": "floatBufferViews",
      "target": 34962
    }
  ],
  "buffers": [
    {
      "byteLength": 3829944,
      "uri": "scene.bin"
    }
  ],
  "extensionsUsed": [
    "KHR_materials_specular"
  ],
  "images": [
    {
      "uri": "textures/Tagarete_LP2_baseColor.jpeg"
    },
    {
      "uri": "textures/Tagarete_LP2_metallicRoughness.png"
    },
    {
      "uri": "textures/Tagarete_LP2_normal.png"
    }
  ],
  "materials": [
    {
      "doubleSided": true,
      "extensions": {
        "KHR_materials_specular": {
          "specularColorFactor": [
            1.0,
            1.0,
            1.0
          ],
          "specularFactor": 0.05
        }
      },
      "name": "Tagarete_LP2",
      "normalTexture": {
        "index": 2
      },
      "occlusionTexture": {
        "index": 1
      },
      "pbrMetallicRoughness": {
        "baseColorTexture": {
          "index": 0
        },
        "metallicFactor": 0.0,
        "metallicRoughnessTexture": {
          "index": 1
        }
      }
    }
  ],
  "meshes": [
    {
      "name": "defaultMaterial",
      "primitives": [
        {
          "attributes": {
            "NORMAL": 1,
            "POSITION": 0,
            "TANGENT": 2,
            "TEXCOORD_0": 3
          },
          "indices": 4,
          "material": 0,
          "mode": 4
        }
      ]
    }
  ],
  "nodes": [
    {
      "children": [
        1
      ],
      "matrix": [
        1.0,
        0.0,
        0.0,
        0.0,
        0.0,
        2.220446049250313e-16,
        -1.0,
        0.0,
        0.0,
        1.0,
        2.220446049250313e-16,
        0.0,
        0.0,
        0.0,
        0.0,
        1.0
      ],
      "name": "Sketchfab_model"
    },
    {
      "children": [
        2
      ],
      "matrix": [
        1.0,
        0.0,
        0.0,
        0.0,
        0.0,
        -4.371139006309477e-08,
        0.999999999999999,
        0.0,
        0.0,
        -0.999999999999999,
        -4.371139006309477e-08,
        0.0,
        0.0,
        0.0,
        0.0,
        1.0
      ],
      "name": "Collada visual scene group"
    },
    {
      "children": [
        3
      ],
      "name": "Tagarete_LP2"
    },
    {
      "mesh": 0,
      "name": "defaultMaterial"
    }
  ],
  "samplers": [
    {
      "magFilter": 9729,
      "minFilter": 9987,
      "wrapS": 10497,
      "wrapT": 10497
    }
  ],
  "scene": 0,
  "scenes": [
    {
      "name": "Sketchfab_Scene",
      "nodes": [
        0
      ]
    }
  ],
  "textures": [
    {
      "sampler": 0,
      "source": 0
    },
    {
      "sampler": 0,
      "source": 1
    },
    {
      "sampler": 0,
      "source": 2
    }
  ]
}
